<svg xmlns="http://www.w3.org/2000/svg" width="56" height="56" fill="none"><path fill="#00ADE4" fill-rule="evenodd" d="M43.539 28.945c-.442 1.178-1.179 2.209-1.326 2.209l-3.24 3.239-6.482-6.331 6.334-6.331 3.24 3.239c1.032.883 1.916 2.061 1.474 3.975M27.188 43.521c-1.179-.441-2.21-1.178-2.21-1.325l-3.24-3.239 6.334-6.331 6.334 6.331-3.241 3.24c-.884.883-2.21 1.766-3.977 1.324M12.605 27.178c.442-1.177 1.178-2.208 1.326-2.208l3.24-3.24 6.334 6.332-6.333 6.331-3.389-3.24c-.883-.883-1.767-2.208-1.178-3.974m16.35-14.577c1.179.442 2.21 1.178 2.21 1.325l3.24 3.24-6.333 6.33-6.334-6.33 3.24-3.24c.884-.883 2.063-1.914 3.977-1.325m17.824 7.804L35.731 9.363c-.147-.147-1.914-1.914-4.566-2.797-3.83-1.325-7.512-.295-10.605 2.797L9.365 20.406c-.148.147-1.915 1.914-2.799 4.564-1.326 3.828-.295 7.51 2.799 10.601l11.047 11.043c.148.147 1.915 1.914 4.567 2.797 1.03.294 2.21.589 3.24.589 2.652 0 5.156-1.178 7.365-3.24l11.048-11.042c.147-.147 1.915-1.914 2.799-4.564 1.325-3.828.294-7.656-2.652-10.748" clip-rule="evenodd"/></svg>